<svg xmlns="http://www.w3.org/2000/svg" width="502" height="162" viewBox="0 0 502 162" role="img" aria-label="Railroad diagram of the rule statement-3">
<style>path{fill:none;stroke:#333;stroke-width:1.5}.rule rect{fill:#e8eefc;stroke:#333;stroke-width:1.5}.terminal rect{fill:#fdf6d8;stroke:#333;stroke-width:1.5}text{font-family:ui-monospace,SFMono-Regular,Menlo,Consolas,"DejaVu Sans Mono","Liberation Mono",monospace;font-size:14px;fill:#111;text-anchor:middle}text.label{font-size:12px;font-style:italic;fill:#555;text-anchor:start}text.title{font-weight:bold;text-anchor:start}</style>
<rect width="100%" height="100%" fill="#fff"/>
<text class="title" x="10" y="24">statement-3</text>
<path d="M10 38v16m4 -16v16M14 46h6"/>
<path d="M20 46h20"/>
<g class="rule"><rect x="40" y="34" width="84" height="24" rx="0"/><text x="82" y="51" textLength="67.2" lengthAdjust="spacingAndGlyphs">sentence</text></g>
<path d="M124 46H482"/>
<path d="M20 46a10 10 0 0 1 10 10V96a10 10 0 0 0 10 10"/>
<path d="M40 106h20"/>
<g class="rule"><rect x="60" y="94" width="42" height="24" rx="0"/><text x="81" y="111" textLength="25.2" lengthAdjust="spacingAndGlyphs">tag</text></g>
<path d="M102 106H122"/>
<path d="M40 106a10 10 0 0 0 10 -10V94a10 10 0 0 1 10 -10H102a10 10 0 0 1 10 10V96a10 10 0 0 0 10 10"/>
<path d="M122 106h10"/>
<g class="terminal"><rect x="132" y="94" width="50" height="24" rx="12"/><text x="157" y="111" textLength="33.6" lengthAdjust="spacingAndGlyphs">TUhE</text></g>
<path d="M182 106h10"/>
<g class="rule"><rect x="192" y="94" width="25" height="24" rx="0"/><text x="204.5" y="111" textLength="8.4" lengthAdjust="spacingAndGlyphs">#</text></g>
<path d="M217 106h10"/>
<g class="rule"><rect x="227" y="94" width="100" height="24" rx="0"/><text x="277" y="111" textLength="84" lengthAdjust="spacingAndGlyphs">paragraphs</text></g>
<path d="M327 106h10"/>
<path d="M337 106h20"/>
<g class="terminal"><rect x="357" y="94" width="50" height="24" rx="12"/><text x="382" y="111" textLength="33.6" lengthAdjust="spacingAndGlyphs">TUhU</text></g>
<path d="M407 106h10"/>
<g class="rule"><rect x="417" y="94" width="25" height="24" rx="0"/><text x="429.5" y="111" textLength="8.4" lengthAdjust="spacingAndGlyphs">#</text></g>
<path d="M442 106H462"/>
<path d="M337 106a10 10 0 0 0 10 -10V94a10 10 0 0 1 10 -10H442a10 10 0 0 1 10 10V96a10 10 0 0 0 10 10"/>
<text class="label" x="361" y="79" textLength="43.2" lengthAdjust="spacingAndGlyphs">elided</text>
<path d="M462 106H462a10 10 0 0 0 10 -10V56a10 10 0 0 1 10 -10"/>
<path d="M20 46a10 10 0 0 1 10 10V130a10 10 0 0 0 10 10"/>
<g class="rule"><rect x="40" y="128" width="126" height="24" rx="0"/><text x="103" y="145" textLength="109.2" lengthAdjust="spacingAndGlyphs">gek-statement</text></g>
<path d="M166 140H462a10 10 0 0 0 10 -10V56a10 10 0 0 1 10 -10"/>
<path d="M482 46h6m0 -8v16m4 -16v16"/>
</svg>
