<svg xmlns="http://www.w3.org/2000/svg" width="401" height="136" viewBox="0 0 401 136" role="img" aria-label="Railroad diagram of the rule lohai-stream">
<style>path{fill:none;stroke:#333;stroke-width:1.5}.rule rect{fill:#e8eefc;stroke:#333;stroke-width:1.5}.terminal rect{fill:#fdf6d8;stroke:#333;stroke-width:1.5}text{font-family:ui-monospace,SFMono-Regular,Menlo,Consolas,"DejaVu Sans Mono","Liberation Mono",monospace;font-size:14px;fill:#111;text-anchor:middle}text.label{font-size:12px;font-style:italic;fill:#555;text-anchor:start}text.title{font-weight:bold;text-anchor:start}</style>
<rect width="100%" height="100%" fill="#fff"/>
<text class="title" x="10" y="24" textLength="100.8" lengthAdjust="spacingAndGlyphs">lohai-stream</text>
<path d="M10 38v16m4 -16v16M14 46h6"/>
<path d="M20 46h20"/>
<g class="rule"><rect x="40" y="34" width="126" height="24" rx="0"/><text x="103" y="51" textLength="109.2" lengthAdjust="spacingAndGlyphs">lohai-element</text></g>
<path d="M166 46H381"/>
<path d="M20 46a10 10 0 0 1 10 10V70a10 10 0 0 0 10 10"/>
<g class="rule"><rect x="40" y="68" width="117" height="24" rx="0"/><text x="98.5" y="85" textLength="100.8" lengthAdjust="spacingAndGlyphs">lohai-stream</text></g>
<path d="M157 80h10"/>
<g class="terminal"><rect x="167" y="68" width="58" height="24" rx="12"/><text x="196" y="85" textLength="42" lengthAdjust="spacingAndGlyphs">PAUSE</text></g>
<path d="M225 80h10"/>
<g class="rule"><rect x="235" y="68" width="126" height="24" rx="0"/><text x="298" y="85" textLength="109.2" lengthAdjust="spacingAndGlyphs">lohai-element</text></g>
<path d="M361 80H361a10 10 0 0 0 10 -10V56a10 10 0 0 1 10 -10"/>
<path d="M20 46a10 10 0 0 1 10 10V104a10 10 0 0 0 10 10"/>
<g class="rule"><rect x="40" y="102" width="117" height="24" rx="0"/><text x="98.5" y="119" textLength="100.8" lengthAdjust="spacingAndGlyphs">lohai-stream</text></g>
<path d="M157 114h10"/>
<g class="rule"><rect x="167" y="102" width="126" height="24" rx="0"/><text x="230" y="119" textLength="109.2" lengthAdjust="spacingAndGlyphs">lohai-element</text></g>
<path d="M293 114H361a10 10 0 0 0 10 -10V56a10 10 0 0 1 10 -10"/>
<path d="M381 46h6m0 -8v16m4 -16v16"/>
</svg>
