<svg xmlns="http://www.w3.org/2000/svg" width="180" height="170" viewBox="0 0 180 170" role="img" aria-label="Railroad diagram of the rule comma">
<style>path{fill:none;stroke:#333;stroke-width:1.5}.rule rect{fill:#e8eefc;stroke:#333;stroke-width:1.5}.terminal rect{fill:#fdf6d8;stroke:#333;stroke-width:1.5}text{font-family:ui-monospace,SFMono-Regular,Menlo,Consolas,"DejaVu Sans Mono","Liberation Mono",monospace;font-size:14px;fill:#111;text-anchor:middle}text.label{font-size:12px;font-style:italic;fill:#555;text-anchor:start}text.title{font-weight:bold;text-anchor:start}</style>
<rect width="100%" height="100%" fill="#fff"/>
<text class="title" x="10" y="24" textLength="42" lengthAdjust="spacingAndGlyphs">comma</text>
<path d="M10 38v16m4 -16v16M14 46h6"/>
<path d="M20 46h20"/>
<g class="terminal"><rect x="40" y="34" width="100" height="24" rx="12"/><text x="90" y="51" textLength="84" lengthAdjust="spacingAndGlyphs">'\u{ED9A}'</text></g>
<path d="M140 46H160"/>
<path d="M20 46a10 10 0 0 1 10 10V70a10 10 0 0 0 10 10"/>
<g class="terminal"><rect x="40" y="68" width="100" height="24" rx="12"/><text x="90" y="85" textLength="84" lengthAdjust="spacingAndGlyphs">'\u{ED8C}'</text></g>
<path d="M140 80H140a10 10 0 0 0 10 -10V56a10 10 0 0 1 10 -10"/>
<path d="M20 46a10 10 0 0 1 10 10V104a10 10 0 0 0 10 10"/>
<g class="terminal"><rect x="40" y="102" width="100" height="24" rx="12"/><text x="90" y="119" textLength="84" lengthAdjust="spacingAndGlyphs">'\u{ED99}'</text></g>
<path d="M140 114H140a10 10 0 0 0 10 -10V56a10 10 0 0 1 10 -10"/>
<path d="M20 46a10 10 0 0 1 10 10V138a10 10 0 0 0 10 10"/>
<g class="terminal"><rect x="40" y="136" width="100" height="24" rx="12"/><text x="90" y="153" textLength="84" lengthAdjust="spacingAndGlyphs">'\u{ED9B}'</text></g>
<path d="M140 148H140a10 10 0 0 0 10 -10V56a10 10 0 0 1 10 -10"/>
<path d="M160 46h6m0 -8v16m4 -16v16"/>
</svg>
