<svg xmlns="http://www.w3.org/2000/svg" width="342" height="170" viewBox="0 0 342 170" role="img" aria-label="Railroad diagram of the rule text">
<style>path{fill:none;stroke:#333;stroke-width:1.5}.rule rect{fill:#e8eefc;stroke:#333;stroke-width:1.5}.terminal rect{fill:#fdf6d8;stroke:#333;stroke-width:1.5}text{font-family:ui-monospace,SFMono-Regular,Menlo,Consolas,"DejaVu Sans Mono","Liberation Mono",monospace;font-size:14px;fill:#111;text-anchor:middle}text.label{font-size:12px;font-style:italic;fill:#555;text-anchor:start}text.title{font-weight:bold;text-anchor:start}</style>
<rect width="100%" height="100%" fill="#fff"/>
<text class="title" x="10" y="24">text</text>
<path d="M10 38v16m4 -16v16M14 46h6"/>
<path d="M20 46h20"/>
<g class="rule"><rect x="40" y="34" width="58" height="24" rx="0"/><text x="69" y="51" textLength="42" lengthAdjust="spacingAndGlyphs">empty</text></g>
<path d="M98 46H322"/>
<path d="M20 46a10 10 0 0 1 10 10V70a10 10 0 0 0 10 10"/>
<g class="rule"><rect x="40" y="68" width="67" height="24" rx="0"/><text x="73.5" y="85" textLength="50.4" lengthAdjust="spacingAndGlyphs">stream</text></g>
<path d="M107 80h10"/>
<g class="rule"><rect x="117" y="68" width="75" height="24" rx="0"/><text x="154.5" y="85" textLength="58.8" lengthAdjust="spacingAndGlyphs">spacing</text></g>
<path d="M192 80H302a10 10 0 0 0 10 -10V56a10 10 0 0 1 10 -10"/>
<path d="M20 46a10 10 0 0 1 10 10V104a10 10 0 0 0 10 10"/>
<g class="rule"><rect x="40" y="102" width="58" height="24" rx="0"/><text x="69" y="119" textLength="42" lengthAdjust="spacingAndGlyphs">empty</text></g>
<path d="M98 114h10"/>
<g class="rule"><rect x="108" y="102" width="100" height="24" rx="0"/><text x="158" y="119" textLength="84" lengthAdjust="spacingAndGlyphs">faho-group</text></g>
<path d="M208 114H302a10 10 0 0 0 10 -10V56a10 10 0 0 1 10 -10"/>
<path d="M20 46a10 10 0 0 1 10 10V138a10 10 0 0 0 10 10"/>
<g class="rule"><rect x="40" y="136" width="67" height="24" rx="0"/><text x="73.5" y="153" textLength="50.4" lengthAdjust="spacingAndGlyphs">stream</text></g>
<path d="M107 148h10"/>
<g class="rule"><rect x="117" y="136" width="75" height="24" rx="0"/><text x="154.5" y="153" textLength="58.8" lengthAdjust="spacingAndGlyphs">spacing</text></g>
<path d="M192 148h10"/>
<g class="rule"><rect x="202" y="136" width="100" height="24" rx="0"/><text x="252" y="153" textLength="84" lengthAdjust="spacingAndGlyphs">faho-group</text></g>
<path d="M302 148H302a10 10 0 0 0 10 -10V56a10 10 0 0 1 10 -10"/>
<path d="M322 46h6m0 -8v16m4 -16v16"/>
</svg>
