<svg xmlns="http://www.w3.org/2000/svg" width="241" height="110" viewBox="0 0 241 110" role="img" aria-label="Railroad diagram of the rule word">
<style>path{fill:none;stroke:#333;stroke-width:1.5}.rule rect{fill:#e8eefc;stroke:#333;stroke-width:1.5}.terminal rect{fill:#fdf6d8;stroke:#333;stroke-width:1.5}text{font-family:ui-monospace,SFMono-Regular,Menlo,Consolas,"DejaVu Sans Mono","Liberation Mono",monospace;font-size:14px;fill:#111;text-anchor:middle}text.label{font-size:12px;font-style:italic;fill:#555;text-anchor:start}text.title{font-weight:bold;text-anchor:start}</style>
<rect width="100%" height="100%" fill="#fff"/>
<text class="title" x="10" y="24" textLength="33.6" lengthAdjust="spacingAndGlyphs">word</text>
<text class="label" x="63.6" y="24" textLength="115.2" lengthAdjust="spacingAndGlyphs">conditions apply</text>
<path d="M10 42v16m4 -16v16M14 50h6"/>
<path d="M20 50h20"/>
<path d="M40 50h52"/>
<text class="label" x="44" y="45" textLength="43.2" lengthAdjust="spacingAndGlyphs">sa-su?</text>
<path d="M92 50h10"/>
<g class="rule"><rect x="102" y="38" width="92" height="24" rx="0"/><text x="148" y="55" textLength="75.6" lengthAdjust="spacingAndGlyphs">read-word</text></g>
<path d="M194 50H221"/>
<path d="M20 50a10 10 0 0 1 10 10V78a10 10 0 0 0 10 10"/>
<path d="M40 88h59"/>
<text class="label" x="44" y="83" textLength="50.4" lengthAdjust="spacingAndGlyphs">¬sa-su?</text>
<path d="M99 88h10"/>
<g class="rule"><rect x="109" y="76" width="92" height="24" rx="0"/><text x="155" y="93" textLength="75.6" lengthAdjust="spacingAndGlyphs">read-word</text></g>
<path d="M201 88H201a10 10 0 0 0 10 -10V60a10 10 0 0 1 10 -10"/>
<path d="M221 50h6m0 -8v16m4 -16v16"/>
</svg>
