<svg xmlns="http://www.w3.org/2000/svg" width="207" height="612" viewBox="0 0 207 612" role="img" aria-label="Railroad diagram of the rule consonant-pair">
<style>path{fill:none;stroke:#333;stroke-width:1.5}.rule rect{fill:#e8eefc;stroke:#333;stroke-width:1.5}.terminal rect{fill:#fdf6d8;stroke:#333;stroke-width:1.5}text{font-family:ui-monospace,SFMono-Regular,Menlo,Consolas,"DejaVu Sans Mono","Liberation Mono",monospace;font-size:14px;fill:#111;text-anchor:middle}text.label{font-size:12px;font-style:italic;fill:#555;text-anchor:start}text.title{font-weight:bold;text-anchor:start}</style>
<rect width="100%" height="100%" fill="#fff"/>
<text class="title" x="10" y="24" textLength="117.6" lengthAdjust="spacingAndGlyphs">consonant-pair</text>
<path d="M10 38v16m4 -16v16M14 46h6"/>
<path d="M20 46h20"/>
<g class="terminal"><rect x="40" y="34" width="42" height="24" rx="12"/><text x="61" y="51" textLength="25.2" lengthAdjust="spacingAndGlyphs">/b/</text></g>
<path d="M82 46h10"/>
<g class="rule"><rect x="92" y="34" width="75" height="24" rx="0"/><text x="129.5" y="51" textLength="58.8" lengthAdjust="spacingAndGlyphs">after-b</text></g>
<path d="M167 46H187"/>
<path d="M20 46a10 10 0 0 1 10 10V70a10 10 0 0 0 10 10"/>
<g class="terminal"><rect x="40" y="68" width="42" height="24" rx="12"/><text x="61" y="85" textLength="25.2" lengthAdjust="spacingAndGlyphs">/c/</text></g>
<path d="M82 80h10"/>
<g class="rule"><rect x="92" y="68" width="75" height="24" rx="0"/><text x="129.5" y="85" textLength="58.8" lengthAdjust="spacingAndGlyphs">after-c</text></g>
<path d="M167 80H167a10 10 0 0 0 10 -10V56a10 10 0 0 1 10 -10"/>
<path d="M20 46a10 10 0 0 1 10 10V104a10 10 0 0 0 10 10"/>
<g class="terminal"><rect x="40" y="102" width="42" height="24" rx="12"/><text x="61" y="119" textLength="25.2" lengthAdjust="spacingAndGlyphs">/d/</text></g>
<path d="M82 114h10"/>
<g class="rule"><rect x="92" y="102" width="75" height="24" rx="0"/><text x="129.5" y="119" textLength="58.8" lengthAdjust="spacingAndGlyphs">after-d</text></g>
<path d="M167 114H167a10 10 0 0 0 10 -10V56a10 10 0 0 1 10 -10"/>
<path d="M20 46a10 10 0 0 1 10 10V138a10 10 0 0 0 10 10"/>
<g class="terminal"><rect x="40" y="136" width="42" height="24" rx="12"/><text x="61" y="153" textLength="25.2" lengthAdjust="spacingAndGlyphs">/f/</text></g>
<path d="M82 148h10"/>
<g class="rule"><rect x="92" y="136" width="75" height="24" rx="0"/><text x="129.5" y="153" textLength="58.8" lengthAdjust="spacingAndGlyphs">after-f</text></g>
<path d="M167 148H167a10 10 0 0 0 10 -10V56a10 10 0 0 1 10 -10"/>
<path d="M20 46a10 10 0 0 1 10 10V172a10 10 0 0 0 10 10"/>
<g class="terminal"><rect x="40" y="170" width="42" height="24" rx="12"/><text x="61" y="187" textLength="25.2" lengthAdjust="spacingAndGlyphs">/g/</text></g>
<path d="M82 182h10"/>
<g class="rule"><rect x="92" y="170" width="75" height="24" rx="0"/><text x="129.5" y="187" textLength="58.8" lengthAdjust="spacingAndGlyphs">after-g</text></g>
<path d="M167 182H167a10 10 0 0 0 10 -10V56a10 10 0 0 1 10 -10"/>
<path d="M20 46a10 10 0 0 1 10 10V206a10 10 0 0 0 10 10"/>
<g class="terminal"><rect x="40" y="204" width="42" height="24" rx="12"/><text x="61" y="221" textLength="25.2" lengthAdjust="spacingAndGlyphs">/j/</text></g>
<path d="M82 216h10"/>
<g class="rule"><rect x="92" y="204" width="75" height="24" rx="0"/><text x="129.5" y="221" textLength="58.8" lengthAdjust="spacingAndGlyphs">after-j</text></g>
<path d="M167 216H167a10 10 0 0 0 10 -10V56a10 10 0 0 1 10 -10"/>
<path d="M20 46a10 10 0 0 1 10 10V240a10 10 0 0 0 10 10"/>
<g class="terminal"><rect x="40" y="238" width="42" height="24" rx="12"/><text x="61" y="255" textLength="25.2" lengthAdjust="spacingAndGlyphs">/k/</text></g>
<path d="M82 250h10"/>
<g class="rule"><rect x="92" y="238" width="75" height="24" rx="0"/><text x="129.5" y="255" textLength="58.8" lengthAdjust="spacingAndGlyphs">after-k</text></g>
<path d="M167 250H167a10 10 0 0 0 10 -10V56a10 10 0 0 1 10 -10"/>
<path d="M20 46a10 10 0 0 1 10 10V274a10 10 0 0 0 10 10"/>
<g class="terminal"><rect x="40" y="272" width="42" height="24" rx="12"/><text x="61" y="289" textLength="25.2" lengthAdjust="spacingAndGlyphs">/l/</text></g>
<path d="M82 284h10"/>
<g class="rule"><rect x="92" y="272" width="75" height="24" rx="0"/><text x="129.5" y="289" textLength="58.8" lengthAdjust="spacingAndGlyphs">after-l</text></g>
<path d="M167 284H167a10 10 0 0 0 10 -10V56a10 10 0 0 1 10 -10"/>
<path d="M20 46a10 10 0 0 1 10 10V308a10 10 0 0 0 10 10"/>
<g class="terminal"><rect x="40" y="306" width="42" height="24" rx="12"/><text x="61" y="323" textLength="25.2" lengthAdjust="spacingAndGlyphs">/m/</text></g>
<path d="M82 318h10"/>
<g class="rule"><rect x="92" y="306" width="75" height="24" rx="0"/><text x="129.5" y="323" textLength="58.8" lengthAdjust="spacingAndGlyphs">after-m</text></g>
<path d="M167 318H167a10 10 0 0 0 10 -10V56a10 10 0 0 1 10 -10"/>
<path d="M20 46a10 10 0 0 1 10 10V342a10 10 0 0 0 10 10"/>
<g class="terminal"><rect x="40" y="340" width="42" height="24" rx="12"/><text x="61" y="357" textLength="25.2" lengthAdjust="spacingAndGlyphs">/n/</text></g>
<path d="M82 352h10"/>
<g class="rule"><rect x="92" y="340" width="75" height="24" rx="0"/><text x="129.5" y="357" textLength="58.8" lengthAdjust="spacingAndGlyphs">after-n</text></g>
<path d="M167 352H167a10 10 0 0 0 10 -10V56a10 10 0 0 1 10 -10"/>
<path d="M20 46a10 10 0 0 1 10 10V376a10 10 0 0 0 10 10"/>
<g class="terminal"><rect x="40" y="374" width="42" height="24" rx="12"/><text x="61" y="391" textLength="25.2" lengthAdjust="spacingAndGlyphs">/p/</text></g>
<path d="M82 386h10"/>
<g class="rule"><rect x="92" y="374" width="75" height="24" rx="0"/><text x="129.5" y="391" textLength="58.8" lengthAdjust="spacingAndGlyphs">after-p</text></g>
<path d="M167 386H167a10 10 0 0 0 10 -10V56a10 10 0 0 1 10 -10"/>
<path d="M20 46a10 10 0 0 1 10 10V410a10 10 0 0 0 10 10"/>
<g class="terminal"><rect x="40" y="408" width="42" height="24" rx="12"/><text x="61" y="425" textLength="25.2" lengthAdjust="spacingAndGlyphs">/r/</text></g>
<path d="M82 420h10"/>
<g class="rule"><rect x="92" y="408" width="75" height="24" rx="0"/><text x="129.5" y="425" textLength="58.8" lengthAdjust="spacingAndGlyphs">after-r</text></g>
<path d="M167 420H167a10 10 0 0 0 10 -10V56a10 10 0 0 1 10 -10"/>
<path d="M20 46a10 10 0 0 1 10 10V444a10 10 0 0 0 10 10"/>
<g class="terminal"><rect x="40" y="442" width="42" height="24" rx="12"/><text x="61" y="459" textLength="25.2" lengthAdjust="spacingAndGlyphs">/s/</text></g>
<path d="M82 454h10"/>
<g class="rule"><rect x="92" y="442" width="75" height="24" rx="0"/><text x="129.5" y="459" textLength="58.8" lengthAdjust="spacingAndGlyphs">after-s</text></g>
<path d="M167 454H167a10 10 0 0 0 10 -10V56a10 10 0 0 1 10 -10"/>
<path d="M20 46a10 10 0 0 1 10 10V478a10 10 0 0 0 10 10"/>
<g class="terminal"><rect x="40" y="476" width="42" height="24" rx="12"/><text x="61" y="493" textLength="25.2" lengthAdjust="spacingAndGlyphs">/t/</text></g>
<path d="M82 488h10"/>
<g class="rule"><rect x="92" y="476" width="75" height="24" rx="0"/><text x="129.5" y="493" textLength="58.8" lengthAdjust="spacingAndGlyphs">after-t</text></g>
<path d="M167 488H167a10 10 0 0 0 10 -10V56a10 10 0 0 1 10 -10"/>
<path d="M20 46a10 10 0 0 1 10 10V512a10 10 0 0 0 10 10"/>
<g class="terminal"><rect x="40" y="510" width="42" height="24" rx="12"/><text x="61" y="527" textLength="25.2" lengthAdjust="spacingAndGlyphs">/v/</text></g>
<path d="M82 522h10"/>
<g class="rule"><rect x="92" y="510" width="75" height="24" rx="0"/><text x="129.5" y="527" textLength="58.8" lengthAdjust="spacingAndGlyphs">after-v</text></g>
<path d="M167 522H167a10 10 0 0 0 10 -10V56a10 10 0 0 1 10 -10"/>
<path d="M20 46a10 10 0 0 1 10 10V546a10 10 0 0 0 10 10"/>
<g class="terminal"><rect x="40" y="544" width="42" height="24" rx="12"/><text x="61" y="561" textLength="25.2" lengthAdjust="spacingAndGlyphs">/x/</text></g>
<path d="M82 556h10"/>
<g class="rule"><rect x="92" y="544" width="75" height="24" rx="0"/><text x="129.5" y="561" textLength="58.8" lengthAdjust="spacingAndGlyphs">after-x</text></g>
<path d="M167 556H167a10 10 0 0 0 10 -10V56a10 10 0 0 1 10 -10"/>
<path d="M20 46a10 10 0 0 1 10 10V580a10 10 0 0 0 10 10"/>
<g class="terminal"><rect x="40" y="578" width="42" height="24" rx="12"/><text x="61" y="595" textLength="25.2" lengthAdjust="spacingAndGlyphs">/z/</text></g>
<path d="M82 590h10"/>
<g class="rule"><rect x="92" y="578" width="75" height="24" rx="0"/><text x="129.5" y="595" textLength="58.8" lengthAdjust="spacingAndGlyphs">after-z</text></g>
<path d="M167 590H167a10 10 0 0 0 10 -10V56a10 10 0 0 1 10 -10"/>
<path d="M187 46h6m0 -8v16m4 -16v16"/>
</svg>
