<svg xmlns="http://www.w3.org/2000/svg" width="197" height="102" viewBox="0 0 197 102" role="img" aria-label="Railroad diagram of the rule tanru-unit">
<style>path{fill:none;stroke:#333;stroke-width:1.5}.rule rect{fill:#e8eefc;stroke:#333;stroke-width:1.5}.terminal rect{fill:#fdf6d8;stroke:#333;stroke-width:1.5}text{font-family:ui-monospace,SFMono-Regular,Menlo,Consolas,"DejaVu Sans Mono","Liberation Mono",monospace;font-size:14px;fill:#111;text-anchor:middle}text.label{font-size:12px;font-style:italic;fill:#555;text-anchor:start}text.title{font-weight:bold;text-anchor:start}</style>
<rect width="100%" height="100%" fill="#fff"/>
<text class="title" x="10" y="24" textLength="84" lengthAdjust="spacingAndGlyphs">tanru-unit</text>
<path d="M10 38v16m4 -16v16M14 46h6"/>
<path d="M20 46h20"/>
<g class="rule"><rect x="40" y="34" width="117" height="24" rx="0"/><text x="98.5" y="51" textLength="100.8" lengthAdjust="spacingAndGlyphs">tanru-unit-1</text></g>
<path d="M157 46H177"/>
<path d="M157 46a10 10 0 0 1 10 10V70a10 10 0 0 1 -10 10H137"/>
<g class="terminal"><rect x="95" y="68" width="42" height="24" rx="12"/><text x="116" y="85" textLength="25.2" lengthAdjust="spacingAndGlyphs">CEI</text></g>
<path d="M95 80h-10"/>
<g class="rule"><rect x="60" y="68" width="25" height="24" rx="0"/><text x="72.5" y="85" textLength="8.4" lengthAdjust="spacingAndGlyphs">#</text></g>
<path d="M60 80H40a10 10 0 0 1 -10 -10V56a10 10 0 0 1 10 -10"/>
<path d="M177 46h6m0 -8v16m4 -16v16"/>
</svg>
