<svg xmlns="http://www.w3.org/2000/svg" width="675" height="154" viewBox="0 0 675 154" role="img" aria-label="Railroad diagram of the rule termset-with-nuhi">
<style>path{fill:none;stroke:#333;stroke-width:1.5}.rule rect{fill:#e8eefc;stroke:#333;stroke-width:1.5}.terminal rect{fill:#fdf6d8;stroke:#333;stroke-width:1.5}text{font-family:ui-monospace,SFMono-Regular,Menlo,Consolas,"DejaVu Sans Mono","Liberation Mono",monospace;font-size:14px;fill:#111;text-anchor:middle}text.label{font-size:12px;font-style:italic;fill:#555;text-anchor:start}text.title{font-weight:bold;text-anchor:start}</style>
<rect width="100%" height="100%" fill="#fff"/>
<text class="title" x="10" y="24">termset-with-nuhi</text>
<path d="M10 64v16m4 -16v16M14 72h6"/>
<path d="M20 72h20"/>
<g class="terminal"><rect x="40" y="60" width="50" height="24" rx="12"/><text x="65" y="77" textLength="33.6" lengthAdjust="spacingAndGlyphs">NUhI</text></g>
<path d="M90 72h10"/>
<g class="rule"><rect x="100" y="60" width="25" height="24" rx="0"/><text x="112.5" y="77" textLength="8.4" lengthAdjust="spacingAndGlyphs">#</text></g>
<path d="M125 72h10"/>
<g class="rule"><rect x="135" y="60" width="42" height="24" rx="0"/><text x="156" y="77" textLength="25.2" lengthAdjust="spacingAndGlyphs">gek</text></g>
<path d="M177 72h10"/>
<g class="rule"><rect x="187" y="60" width="58" height="24" rx="0"/><text x="216" y="77" textLength="42" lengthAdjust="spacingAndGlyphs">terms</text></g>
<path d="M245 72h10"/>
<path d="M255 72h20"/>
<g class="terminal"><rect x="275" y="60" width="50" height="24" rx="12"/><text x="300" y="77" textLength="33.6" lengthAdjust="spacingAndGlyphs">NUhU</text></g>
<path d="M325 72H345"/>
<path d="M255 72a10 10 0 0 0 10 -10V60a10 10 0 0 1 10 -10H325a10 10 0 0 1 10 10V62a10 10 0 0 0 10 10"/>
<text class="label" x="279" y="45" textLength="43.2" lengthAdjust="spacingAndGlyphs">elided</text>
<path d="M345 72h10"/>
<g class="rule"><rect x="355" y="60" width="25" height="24" rx="0"/><text x="367.5" y="77" textLength="8.4" lengthAdjust="spacingAndGlyphs">#</text></g>
<path d="M380 72h10"/>
<g class="rule"><rect x="390" y="60" width="42" height="24" rx="0"/><text x="411" y="77" textLength="25.2" lengthAdjust="spacingAndGlyphs">gik</text></g>
<path d="M432 72h10"/>
<g class="rule"><rect x="442" y="60" width="58" height="24" rx="0"/><text x="471" y="77" textLength="42" lengthAdjust="spacingAndGlyphs">terms</text></g>
<path d="M500 72h10"/>
<path d="M510 72h20"/>
<g class="terminal"><rect x="530" y="60" width="50" height="24" rx="12"/><text x="555" y="77" textLength="33.6" lengthAdjust="spacingAndGlyphs">NUhU</text></g>
<path d="M580 72H600"/>
<path d="M510 72a10 10 0 0 0 10 -10V60a10 10 0 0 1 10 -10H580a10 10 0 0 1 10 10V62a10 10 0 0 0 10 10"/>
<text class="label" x="534" y="45" textLength="43.2" lengthAdjust="spacingAndGlyphs">elided</text>
<path d="M600 72h10"/>
<g class="rule"><rect x="610" y="60" width="25" height="24" rx="0"/><text x="622.5" y="77" textLength="8.4" lengthAdjust="spacingAndGlyphs">#</text></g>
<path d="M635 72H655"/>
<path d="M20 72a10 10 0 0 1 10 10V122a10 10 0 0 0 10 10"/>
<g class="terminal"><rect x="40" y="120" width="50" height="24" rx="12"/><text x="65" y="137" textLength="33.6" lengthAdjust="spacingAndGlyphs">NUhI</text></g>
<path d="M90 132h10"/>
<g class="rule"><rect x="100" y="120" width="25" height="24" rx="0"/><text x="112.5" y="137" textLength="8.4" lengthAdjust="spacingAndGlyphs">#</text></g>
<path d="M125 132h10"/>
<g class="rule"><rect x="135" y="120" width="285" height="24" rx="0"/><text x="277.5" y="137" textLength="268.8" lengthAdjust="spacingAndGlyphs">terms-not-starting-with-bare-gek</text></g>
<path d="M420 132h10"/>
<path d="M430 132h20"/>
<g class="terminal"><rect x="450" y="120" width="50" height="24" rx="12"/><text x="475" y="137" textLength="33.6" lengthAdjust="spacingAndGlyphs">NUhU</text></g>
<path d="M500 132H520"/>
<path d="M430 132a10 10 0 0 0 10 -10V120a10 10 0 0 1 10 -10H500a10 10 0 0 1 10 10V122a10 10 0 0 0 10 10"/>
<text class="label" x="454" y="105" textLength="43.2" lengthAdjust="spacingAndGlyphs">elided</text>
<path d="M520 132h10"/>
<g class="rule"><rect x="530" y="120" width="25" height="24" rx="0"/><text x="542.5" y="137" textLength="8.4" lengthAdjust="spacingAndGlyphs">#</text></g>
<path d="M555 132H635a10 10 0 0 0 10 -10V82a10 10 0 0 1 10 -10"/>
<path d="M655 72h6m0 -8v16m4 -16v16"/>
</svg>
