<svg xmlns="http://www.w3.org/2000/svg" width="502" height="136" viewBox="0 0 502 136" role="img" aria-label="Railroad diagram of the rule counted-lead">
<style>path{fill:none;stroke:#333;stroke-width:1.5}.rule rect{fill:#e8eefc;stroke:#333;stroke-width:1.5}.terminal rect{fill:#fdf6d8;stroke:#333;stroke-width:1.5}text{font-family:ui-monospace,SFMono-Regular,Menlo,Consolas,"DejaVu Sans Mono","Liberation Mono",monospace;font-size:14px;fill:#111;text-anchor:middle}text.label{font-size:12px;font-style:italic;fill:#555;text-anchor:start}text.title{font-weight:bold;text-anchor:start}</style>
<rect width="100%" height="100%" fill="#fff"/>
<text class="title" x="10" y="24">counted-lead</text>
<path d="M10 38v16m4 -16v16M14 46h6"/>
<path d="M20 46h20"/>
<g class="rule"><rect x="40" y="34" width="134" height="24" rx="0"/><text x="107" y="51" textLength="117.6" lengthAdjust="spacingAndGlyphs">counted-letter</text></g>
<path d="M174 46H482"/>
<path d="M20 46a10 10 0 0 1 10 10V70a10 10 0 0 0 10 10"/>
<g class="rule"><rect x="40" y="68" width="134" height="24" rx="0"/><text x="107" y="85" textLength="117.6" lengthAdjust="spacingAndGlyphs">counted-letter</text></g>
<path d="M174 80h10"/>
<g class="rule"><rect x="184" y="68" width="134" height="24" rx="0"/><text x="251" y="85" textLength="117.6" lengthAdjust="spacingAndGlyphs">counted-letter</text></g>
<path d="M318 80H462a10 10 0 0 0 10 -10V56a10 10 0 0 1 10 -10"/>
<path d="M20 46a10 10 0 0 1 10 10V104a10 10 0 0 0 10 10"/>
<g class="rule"><rect x="40" y="102" width="134" height="24" rx="0"/><text x="107" y="119" textLength="117.6" lengthAdjust="spacingAndGlyphs">counted-letter</text></g>
<path d="M174 114h10"/>
<g class="rule"><rect x="184" y="102" width="134" height="24" rx="0"/><text x="251" y="119" textLength="117.6" lengthAdjust="spacingAndGlyphs">counted-letter</text></g>
<path d="M318 114h10"/>
<g class="rule"><rect x="328" y="102" width="134" height="24" rx="0"/><text x="395" y="119" textLength="117.6" lengthAdjust="spacingAndGlyphs">counted-letter</text></g>
<path d="M462 114H462a10 10 0 0 0 10 -10V56a10 10 0 0 1 10 -10"/>
<path d="M482 46h6m0 -8v16m4 -16v16"/>
</svg>
