<svg xmlns="http://www.w3.org/2000/svg" width="529" height="204" viewBox="0 0 529 204" role="img" aria-label="Railroad diagram of the rule lujvo-rest">
<style>path{fill:none;stroke:#333;stroke-width:1.5}.rule rect{fill:#e8eefc;stroke:#333;stroke-width:1.5}.terminal rect{fill:#fdf6d8;stroke:#333;stroke-width:1.5}text{font-family:ui-monospace,SFMono-Regular,Menlo,Consolas,"DejaVu Sans Mono","Liberation Mono",monospace;font-size:14px;fill:#111;text-anchor:middle}text.label{font-size:12px;font-style:italic;fill:#555;text-anchor:start}text.title{font-weight:bold;text-anchor:start}</style>
<rect width="100%" height="100%" fill="#fff"/>
<text class="title" x="10" y="24" textLength="84" lengthAdjust="spacingAndGlyphs">lujvo-rest</text>
<path d="M10 38v16m4 -16v16M14 46h6"/>
<path d="M20 46h20"/>
<g class="rule"><rect x="40" y="34" width="109" height="24" rx="0"/><text x="94.5" y="51" textLength="92.4" lengthAdjust="spacingAndGlyphs">final-rafsi</text></g>
<path d="M149 46H509"/>
<path d="M20 46a10 10 0 0 1 10 10V70a10 10 0 0 0 10 10"/>
<g class="rule"><rect x="40" y="68" width="92" height="24" rx="0"/><text x="86" y="85" textLength="75.6" lengthAdjust="spacingAndGlyphs">ccv-rafsi</text></g>
<path d="M132 80h10"/>
<g class="rule"><rect x="142" y="68" width="100" height="24" rx="0"/><text x="192" y="85" textLength="84" lengthAdjust="spacingAndGlyphs">lujvo-rest</text></g>
<path d="M242 80H489a10 10 0 0 0 10 -10V56a10 10 0 0 1 10 -10"/>
<path d="M20 46a10 10 0 0 1 10 10V104a10 10 0 0 0 10 10"/>
<g class="rule"><rect x="40" y="102" width="92" height="24" rx="0"/><text x="86" y="119" textLength="75.6" lengthAdjust="spacingAndGlyphs">cvv-rafsi</text></g>
<path d="M132 114h10"/>
<g class="rule"><rect x="142" y="102" width="100" height="24" rx="0"/><text x="192" y="119" textLength="84" lengthAdjust="spacingAndGlyphs">lujvo-rest</text></g>
<path d="M242 114H489a10 10 0 0 0 10 -10V56a10 10 0 0 1 10 -10"/>
<path d="M20 46a10 10 0 0 1 10 10V138a10 10 0 0 0 10 10"/>
<g class="rule"><rect x="40" y="136" width="92" height="24" rx="0"/><text x="86" y="153" textLength="75.6" lengthAdjust="spacingAndGlyphs">consonant</text></g>
<path d="M132 148h10"/>
<g class="rule"><rect x="142" y="136" width="58" height="24" rx="0"/><text x="171" y="153" textLength="42" lengthAdjust="spacingAndGlyphs">vowel</text></g>
<path d="M200 148h10"/>
<g class="rule"><rect x="210" y="136" width="84" height="24" rx="0"/><text x="252" y="153" textLength="67.2" lengthAdjust="spacingAndGlyphs">cvc-rest</text></g>
<path d="M294 148H489a10 10 0 0 0 10 -10V56a10 10 0 0 1 10 -10"/>
<path d="M20 46a10 10 0 0 1 10 10V172a10 10 0 0 0 10 10"/>
<g class="rule"><rect x="40" y="170" width="117" height="24" rx="0"/><text x="98.5" y="187" textLength="100.8" lengthAdjust="spacingAndGlyphs">initial-pair</text></g>
<path d="M157 182h10"/>
<g class="rule"><rect x="167" y="170" width="58" height="24" rx="0"/><text x="196" y="187" textLength="42" lengthAdjust="spacingAndGlyphs">vowel</text></g>
<path d="M225 182h10"/>
<g class="rule"><rect x="235" y="170" width="92" height="24" rx="0"/><text x="281" y="187" textLength="75.6" lengthAdjust="spacingAndGlyphs">consonant</text></g>
<path d="M327 182h10"/>
<g class="terminal"><rect x="337" y="170" width="42" height="24" rx="12"/><text x="358" y="187" textLength="25.2" lengthAdjust="spacingAndGlyphs">/y/</text></g>
<path d="M379 182h10"/>
<g class="rule"><rect x="389" y="170" width="100" height="24" rx="0"/><text x="439" y="187" textLength="84" lengthAdjust="spacingAndGlyphs">lujvo-rest</text></g>
<path d="M489 182H489a10 10 0 0 0 10 -10V56a10 10 0 0 1 10 -10"/>
<path d="M509 46h6m0 -8v16m4 -16v16"/>
</svg>
