<svg xmlns="http://www.w3.org/2000/svg" width="309" height="170" viewBox="0 0 309 170" role="img" aria-label="Railroad diagram of the rule vowel-group">
<style>path{fill:none;stroke:#333;stroke-width:1.5}.rule rect{fill:#e8eefc;stroke:#333;stroke-width:1.5}.terminal rect{fill:#fdf6d8;stroke:#333;stroke-width:1.5}text{font-family:ui-monospace,SFMono-Regular,Menlo,Consolas,"DejaVu Sans Mono","Liberation Mono",monospace;font-size:14px;fill:#111;text-anchor:middle}text.label{font-size:12px;font-style:italic;fill:#555;text-anchor:start}text.title{font-weight:bold;text-anchor:start}</style>
<rect width="100%" height="100%" fill="#fff"/>
<text class="title" x="10" y="24">vowel-group</text>
<path d="M10 38v16m4 -16v16M14 46h6"/>
<path d="M20 46h20"/>
<g class="rule"><rect x="40" y="34" width="58" height="24" rx="0"/><text x="69" y="51" textLength="42" lengthAdjust="spacingAndGlyphs">vowel</text></g>
<path d="M98 46H289"/>
<path d="M20 46a10 10 0 0 1 10 10V70a10 10 0 0 0 10 10"/>
<g class="rule"><rect x="40" y="68" width="109" height="24" rx="0"/><text x="94.5" y="85" textLength="92.4" lengthAdjust="spacingAndGlyphs">vowel-group</text></g>
<path d="M149 80h10"/>
<g class="rule"><rect x="159" y="68" width="58" height="24" rx="0"/><text x="188" y="85" textLength="42" lengthAdjust="spacingAndGlyphs">vowel</text></g>
<path d="M217 80H269a10 10 0 0 0 10 -10V56a10 10 0 0 1 10 -10"/>
<path d="M20 46a10 10 0 0 1 10 10V104a10 10 0 0 0 10 10"/>
<g class="rule"><rect x="40" y="102" width="109" height="24" rx="0"/><text x="94.5" y="119" textLength="92.4" lengthAdjust="spacingAndGlyphs">vowel-group</text></g>
<path d="M149 114h10"/>
<g class="terminal"><rect x="159" y="102" width="42" height="24" rx="12"/><text x="180" y="119" textLength="25.2" lengthAdjust="spacingAndGlyphs">/'/</text></g>
<path d="M201 114h10"/>
<g class="rule"><rect x="211" y="102" width="58" height="24" rx="0"/><text x="240" y="119" textLength="42" lengthAdjust="spacingAndGlyphs">vowel</text></g>
<path d="M269 114H269a10 10 0 0 0 10 -10V56a10 10 0 0 1 10 -10"/>
<path d="M20 46a10 10 0 0 1 10 10V138a10 10 0 0 0 10 10"/>
<g class="rule"><rect x="40" y="136" width="109" height="24" rx="0"/><text x="94.5" y="153" textLength="92.4" lengthAdjust="spacingAndGlyphs">vowel-group</text></g>
<path d="M149 148h10"/>
<g class="terminal"><rect x="159" y="136" width="42" height="24" rx="12"/><text x="180" y="153" textLength="25.2" lengthAdjust="spacingAndGlyphs">/,/</text></g>
<path d="M201 148h10"/>
<g class="rule"><rect x="211" y="136" width="58" height="24" rx="0"/><text x="240" y="153" textLength="42" lengthAdjust="spacingAndGlyphs">vowel</text></g>
<path d="M269 148H269a10 10 0 0 0 10 -10V56a10 10 0 0 1 10 -10"/>
<path d="M289 46h6m0 -8v16m4 -16v16"/>
</svg>
