<svg xmlns="http://www.w3.org/2000/svg" width="257" height="78" viewBox="0 0 257 78" role="img" aria-label="Railroad diagram of the rule y-letters">
<style>path{fill:none;stroke:#333;stroke-width:1.5}.rule rect{fill:#e8eefc;stroke:#333;stroke-width:1.5}.terminal rect{fill:#fdf6d8;stroke:#333;stroke-width:1.5}text{font-family:ui-monospace,SFMono-Regular,Menlo,Consolas,"DejaVu Sans Mono","Liberation Mono",monospace;font-size:14px;fill:#111;text-anchor:middle}text.label{font-size:12px;font-style:italic;fill:#555;text-anchor:start}text.title{font-weight:bold;text-anchor:start}</style>
<rect width="100%" height="100%" fill="#fff"/>
<text class="title" x="10" y="24">y-letters</text>
<path d="M10 48v16m4 -16v16M14 56h6"/>
<path d="M20 56h20"/>
<g class="rule"><rect x="40" y="44" width="92" height="24" rx="0"/><text x="86" y="61" textLength="75.6" lengthAdjust="spacingAndGlyphs">consonant</text></g>
<path d="M132 56H152"/>
<path d="M20 56a10 10 0 0 0 10 -10V44a10 10 0 0 1 10 -10H132a10 10 0 0 1 10 10V46a10 10 0 0 0 10 10"/>
<path d="M152 56h10"/>
<g class="rule"><rect x="162" y="44" width="75" height="24" rx="0"/><text x="199.5" y="61" textLength="58.8" lengthAdjust="spacingAndGlyphs">y-units</text></g>
<path d="M237 56h6m0 -8v16m4 -16v16"/>
</svg>
